<svg xmlns="http://www.w3.org/2000/svg">
  <symbol id="fill-xs" viewBox="0 0 12 12"><path fill="currentColor" d="M1.97 2.22a.75.75 0 0 1 1.06 0l3.25 3.25a.75.75 0 0 1 0 1.06L3.03 9.78a.75.75 0 1 1-1.06-1.06L4.69 6 1.97 3.28a.75.75 0 0 1 0-1.06Z"/><path fill="currentColor" d="M5.97 2.22a.75.75 0 0 1 1.06 0l3.25 3.25a.75.75 0 0 1 0 1.06L7.03 9.78a.75.75 0 1 1-1.06-1.06L8.69 6 5.97 3.28a.75.75 0 0 1 0-1.06Z"/></symbol>
  <symbol id="fill-sm" viewBox="0 0 16 16"><path fill="currentColor" d="M2.97 3.22a.75.75 0 0 1 1.06 0l4.25 4.25a.75.75 0 0 1 0 1.06l-4.25 4.25a.75.75 0 0 1-1.06-1.06L6.69 8 2.97 4.28a.75.75 0 0 1 0-1.06Z"/><path fill="currentColor" d="M7.97 3.22a.75.75 0 0 1 1.06 0l4.25 4.25a.75.75 0 0 1 0 1.06l-4.25 4.25a.75.75 0 0 1-1.06-1.06L11.69 8 7.97 4.28a.75.75 0 0 1 0-1.06Z"/></symbol>
  <symbol id="fill-md" viewBox="0 0 20 20"><path fill="currentColor" d="M3.97 3.22a.75.75 0 0 1 1.06 0l6.25 6.25a.75.75 0 0 1 0 1.06l-6.25 6.25a.75.75 0 0 1-1.06-1.06L9.69 10 3.97 4.28a.75.75 0 0 1 0-1.06Z"/><path fill="currentColor" d="M8.97 3.22a.75.75 0 0 1 1.06 0l6.25 6.25a.75.75 0 0 1 0 1.06l-6.25 6.25a.75.75 0 0 1-1.06-1.06L14.69 10 8.97 4.28a.75.75 0 0 1 0-1.06Z"/></symbol>
  <symbol id="fill-lg" viewBox="0 0 24 24"><path fill="currentColor" d="M4.01 3.367a1.25 1.25 0 0 1 1.768 0l7.75 7.75a1.25 1.25 0 0 1 0 1.767l-7.75 7.75a1.25 1.25 0 0 1-1.768-1.767L10.877 12 4.01 5.134a1.25 1.25 0 0 1 0-1.767Z"/><path fill="currentColor" d="M10.01 3.367a1.25 1.25 0 0 1 1.768 0l7.75 7.75a1.25 1.25 0 0 1 0 1.767l-7.75 7.75a1.25 1.25 0 0 1-1.768-1.767L16.878 12 10.01 5.134a1.25 1.25 0 0 1 0-1.767Z"/></symbol>
  <symbol id="fill-xl" viewBox="0 0 32 32"><path fill="currentColor" d="M6.117 5.366a1.25 1.25 0 0 1 1.767 0l9.75 9.75a1.25 1.25 0 0 1 0 1.768l-9.763 9.764a1.251 1.251 0 0 1-1.769-1.768l8.88-8.88-8.865-8.866a1.25 1.25 0 0 1 0-1.768Z"/><path fill="currentColor" d="M14.117 5.366a1.25 1.25 0 0 1 1.767 0l9.75 9.75a1.25 1.25 0 0 1 0 1.768l-9.763 9.764a1.251 1.251 0 0 1-1.769-1.768l8.88-8.88-8.865-8.866a1.25 1.25 0 0 1 0-1.768Z"/></symbol>
  <symbol id="outline-xs" viewBox="0 0 12 12"><path fill="currentColor" d="M2.147 2.146a.5.5 0 0 1 .707 0l3.5 3.5a.5.5 0 0 1 0 .707l-3.5 3.5a.5.5 0 0 1-.707-.707L5.293 6 2.147 2.853a.5.5 0 0 1 0-.707Z"/><path fill="currentColor" d="M6.147 2.146a.5.5 0 0 1 .707 0l3.5 3.5a.5.5 0 0 1 0 .707l-3.5 3.5a.5.5 0 0 1-.707-.707L9.293 6 6.147 2.853a.5.5 0 0 1 0-.707Z"/></symbol>
  <symbol id="outline-sm" viewBox="0 0 16 16"><path fill="currentColor" d="M3.147 3.146a.5.5 0 0 1 .707 0l4.5 4.5a.5.5 0 0 1 0 .707l-4.5 4.5a.5.5 0 0 1-.707-.707L7.293 8 3.147 3.853a.5.5 0 0 1 0-.707Z"/><path fill="currentColor" d="M8.147 3.146a.5.5 0 0 1 .707 0l4.5 4.5a.5.5 0 0 1 0 .707l-4.5 4.5a.5.5 0 0 1-.707-.707L12.293 8 8.147 3.853a.5.5 0 0 1 0-.707Z"/></symbol>
  <symbol id="outline-md" viewBox="0 0 20 20"><path fill="currentColor" d="M4.147 3.146a.5.5 0 0 1 .707 0l6.5 6.5a.5.5 0 0 1 0 .707l-6.5 6.5a.5.5 0 0 1-.707-.707L10.293 10 4.147 3.853a.5.5 0 0 1 0-.707Z"/><path fill="currentColor" d="M9.147 3.146a.5.5 0 0 1 .707 0l6.5 6.5a.5.5 0 0 1 0 .707l-6.5 6.5a.5.5 0 0 1-.707-.707L15.293 10 9.147 3.853a.5.5 0 0 1 0-.707Z"/></symbol>
  <symbol id="outline-lg" viewBox="0 0 24 24"><path fill="currentColor" d="M4.293 3.293a1 1 0 0 1 1.414 0l8 8a1 1 0 0 1 0 1.414l-8 8a1 1 0 0 1-1.414-1.414L11.586 12 4.293 4.707a1 1 0 0 1 0-1.414Z"/><path fill="currentColor" d="M10.293 3.293a1 1 0 0 1 1.414 0l8 8a1 1 0 0 1 0 1.414l-8 8a1 1 0 0 1-1.414-1.414L17.586 12l-7.293-7.293a1 1 0 0 1 0-1.414Z"/></symbol>
  <symbol id="outline-xl" viewBox="0 0 32 32"><path fill="currentColor" d="M6.293 5.293a1 1 0 0 1 1.414 0l10 10a1 1 0 0 1 0 1.414l-10 10a1 1 0 0 1-1.414-1.414L15.586 16 6.293 6.707a1 1 0 0 1 0-1.414Z"/><path fill="currentColor" d="M14.293 5.293a1 1 0 0 1 1.414 0l10 10a1 1 0 0 1 0 1.414l-10 10a1 1 0 0 1-1.414-1.414L23.586 16l-9.293-9.293a1 1 0 0 1 0-1.414Z"/></symbol>
</svg>
