<svg xmlns="http://www.w3.org/2000/svg">
  <symbol id="fill-xs" viewBox="0 0 12 12"><path fill="currentColor" d="M6.75 2a.75.75 0 0 1 .75.75v7.5a.75.75 0 0 1-1.5 0v-7.5A.75.75 0 0 1 6.75 2Z"/></symbol>
  <symbol id="fill-sm" viewBox="0 0 16 16"><path fill="currentColor" d="M8.75 2a.75.75 0 0 1 .75.75v11.5a.75.75 0 0 1-1.5 0V2.75A.75.75 0 0 1 8.75 2Z"/></symbol>
  <symbol id="fill-md" viewBox="0 0 20 20"><path fill="currentColor" d="M10.75 2a.75.75 0 0 1 .75.75v15.5a.75.75 0 0 1-1.5 0V2.75a.75.75 0 0 1 .75-.75Z"/></symbol>
  <symbol id="fill-lg" viewBox="0 0 24 24"><path fill="currentColor" d="M12.25 3c.69 0 1.25.56 1.25 1.25v15.5a1.25 1.25 0 1 1-2.5 0V4.25c0-.69.56-1.25 1.25-1.25Z"/></symbol>
  <symbol id="fill-xl" viewBox="0 0 32 32"><path fill="currentColor" d="M16.25 3c.69 0 1.25.56 1.25 1.25v23.5a1.25 1.25 0 1 1-2.5 0V4.25c0-.69.56-1.25 1.25-1.25Z"/></symbol>
  <symbol id="outline-xs" viewBox="0 0 12 12"><path fill="currentColor" d="M6.5 2a.5.5 0 0 1 .5.5v8a.5.5 0 0 1-1 0v-8a.5.5 0 0 1 .5-.5Z"/></symbol>
  <symbol id="outline-sm" viewBox="0 0 16 16"><path fill="currentColor" d="M8.5 2a.5.5 0 0 1 .5.5v12a.5.5 0 0 1-1 0v-12a.5.5 0 0 1 .5-.5Z"/></symbol>
  <symbol id="outline-md" viewBox="0 0 20 20"><path fill="currentColor" d="M10.5 2a.5.5 0 0 1 .5.5v16a.5.5 0 0 1-1 0v-16a.5.5 0 0 1 .5-.5Z"/></symbol>
  <symbol id="outline-lg" viewBox="0 0 24 24"><path fill="currentColor" d="M12 3a1 1 0 0 1 1 1v16a1 1 0 1 1-2 0V4a1 1 0 0 1 1-1Z"/></symbol>
  <symbol id="outline-xl" viewBox="0 0 32 32"><path fill="currentColor" d="M16 3a1 1 0 0 1 1 1v24a1 1 0 1 1-2 0V4a1 1 0 0 1 1-1Z"/></symbol>
</svg>
