<svg xmlns="http://www.w3.org/2000/svg">
  <symbol id="fill-xs" viewBox="0 0 12 12"><path fill="currentColor" d="M6.5 3a3.5 3.5 0 1 1 0 7 3.5 3.5 0 0 1 0-7Zm0 1.5a2 2 0 1 0 0 4 2 2 0 0 0 0-4Z"/></symbol>
  <symbol id="fill-sm" viewBox="0 0 16 16"><path fill="currentColor" d="M8.5 4a4.5 4.5 0 1 1 0 9 4.5 4.5 0 0 1 0-9Zm0 1.5a3 3 0 1 0 0 6 3 3 0 0 0 0-6Z"/></symbol>
  <symbol id="fill-md" viewBox="0 0 20 20"><path fill="currentColor" d="M10.5 5a5.5 5.5 0 1 1 0 11 5.5 5.5 0 0 1 0-11Zm0 1.5a4 4 0 1 0 0 8 4 4 0 0 0 0-8Z"/></symbol>
  <symbol id="fill-lg" viewBox="0 0 24 24"><path fill="currentColor" d="M12.5 6a6.5 6.5 0 1 1 0 13 6.5 6.5 0 0 1 0-13Zm0 1.5a5 5 0 1 0 0 10 5 5 0 0 0 0-10Z"/></symbol>
  <symbol id="fill-xl" viewBox="0 0 32 32"><path fill="currentColor" d="M16.5 9a7.5 7.5 0 1 1 0 15 7.5 7.5 0 0 1 0-15Zm0 1.5a6 6 0 1 0 0 12 6 6 0 0 0 0-12Z"/></symbol>
  <symbol id="outline-xs" viewBox="0 0 12 12"><path fill="currentColor" d="M6.5 3a3.5 3.5 0 1 1 0 7 3.5 3.5 0 0 1 0-7Zm0 1a2.5 2.5 0 1 0 0 5 2.5 2.5 0 0 0 0-5Z"/></symbol>
  <symbol id="outline-sm" viewBox="0 0 16 16"><path fill="currentColor" d="M8.5 4a4.5 4.5 0 1 1 0 9 4.5 4.5 0 0 1 0-9Zm0 1a3.5 3.5 0 1 0 0 7 3.5 3.5 0 0 0 0-7Z"/></symbol>
  <symbol id="outline-md" viewBox="0 0 20 20"><path fill="currentColor" d="M10.5 5a5.5 5.5 0 1 1 0 11 5.5 5.5 0 0 1 0-11Zm0 1a4.5 4.5 0 1 0 0 9 4.5 4.5 0 0 0 0-9Z"/></symbol>
  <symbol id="outline-lg" viewBox="0 0 24 24"><path fill="currentColor" d="M12.5 6a6.5 6.5 0 1 1 0 13 6.5 6.5 0 0 1 0-13Zm0 1a5.5 5.5 0 1 0 0 11 5.5 5.5 0 0 0 0-11Z"/></symbol>
  <symbol id="outline-xl" viewBox="0 0 32 32"><path fill="currentColor" d="M16.5 9a7.5 7.5 0 1 1 0 15 7.5 7.5 0 0 1 0-15Zm0 1a6.5 6.5 0 1 0 0 13 6.5 6.5 0 0 0 0-13Z"/></symbol>
</svg>
